<mxfile host="app.diagrams.net" agent="Mozilla/5.0 (Windows NT 10.0; Win64; x64) AppleWebKit/537.36 (KHTML, like Gecko) Chrome/129.0.0.0 Safari/537.36 Edg/129.0.0.0" version="24.7.17">
  <diagram id="u04uSDArdzlPebj_fiQG" name="Página-1">
    <mxGraphModel dx="696" dy="386" grid="1" gridSize="10" guides="1" tooltips="1" connect="1" arrows="1" fold="1" page="1" pageScale="1" pageWidth="1169" pageHeight="827" math="0" shadow="0">
      <root>
        <mxCell id="0" />
        <mxCell id="1" parent="0" />
        <mxCell id="ugz5MF-itczK6f85yWWh-6" style="edgeStyle=orthogonalEdgeStyle;rounded=0;orthogonalLoop=1;jettySize=auto;html=1;endArrow=none;endFill=0;" edge="1" parent="1" source="ugz5MF-itczK6f85yWWh-1" target="ugz5MF-itczK6f85yWWh-2">
          <mxGeometry relative="1" as="geometry" />
        </mxCell>
        <mxCell id="ugz5MF-itczK6f85yWWh-1" value="Usuário" style="shape=umlActor;verticalLabelPosition=bottom;verticalAlign=top;html=1;outlineConnect=0;" vertex="1" parent="1">
          <mxGeometry x="10" y="20" width="30" height="60" as="geometry" />
        </mxCell>
        <mxCell id="ugz5MF-itczK6f85yWWh-10" value="" style="edgeStyle=orthogonalEdgeStyle;rounded=0;orthogonalLoop=1;jettySize=auto;html=1;endArrow=none;endFill=0;" edge="1" parent="1" source="ugz5MF-itczK6f85yWWh-2" target="ugz5MF-itczK6f85yWWh-4">
          <mxGeometry relative="1" as="geometry" />
        </mxCell>
        <mxCell id="ugz5MF-itczK6f85yWWh-2" value="Informa login e senha" style="ellipse;whiteSpace=wrap;html=1;" vertex="1" parent="1">
          <mxGeometry x="170" y="10" width="120" height="80" as="geometry" />
        </mxCell>
        <mxCell id="ugz5MF-itczK6f85yWWh-7" value="" style="edgeStyle=orthogonalEdgeStyle;rounded=0;orthogonalLoop=1;jettySize=auto;html=1;dashed=1;endArrow=open;endFill=0;" edge="1" parent="1" source="ugz5MF-itczK6f85yWWh-3" target="ugz5MF-itczK6f85yWWh-2">
          <mxGeometry relative="1" as="geometry" />
        </mxCell>
        <mxCell id="ugz5MF-itczK6f85yWWh-3" value="Validação de dados" style="ellipse;whiteSpace=wrap;html=1;" vertex="1" parent="1">
          <mxGeometry x="170" y="190" width="120" height="80" as="geometry" />
        </mxCell>
        <mxCell id="ugz5MF-itczK6f85yWWh-4" value="Libera acesso ao sistema" style="ellipse;whiteSpace=wrap;html=1;" vertex="1" parent="1">
          <mxGeometry x="400" y="10" width="120" height="80" as="geometry" />
        </mxCell>
        <mxCell id="ugz5MF-itczK6f85yWWh-9" value="&amp;lt;&amp;lt;include&amp;gt;&amp;gt;" style="text;html=1;align=center;verticalAlign=middle;whiteSpace=wrap;rounded=0;" vertex="1" parent="1">
          <mxGeometry x="200" y="130" width="60" height="30" as="geometry" />
        </mxCell>
      </root>
    </mxGraphModel>
  </diagram>
</mxfile>
